<svg width="48" height="48" viewBox="0 0 134 134" fill="none" xmlns="http://www.w3.org/2000/svg"><mask id="a" style="mask-type:alpha" maskUnits="userSpaceOnUse" x="0" y="0" width="134" height="134"><path fill="#C4C4C4" d="M0 0h134v134H0z"/></mask><g mask="url(#a)"><path d="m87.96 64.32-.01-16.57-60.83-31.53V64.3l38.94 20.8 14.23-6.26L37.44 56.1l.03-18.21 50.5 26.43Z" fill="url(#b)"/><path d="M50.76 44.84v5.67L37.4 56.23l.1-18.57 13.27 7.18Z" fill="url(#c)"/><path d="m50.81 91.82 29.48-12.98-42.85-22.62 13.24-5.71 55.09 28.77-54.85 23.93-.11-11.39Z" fill="url(#d)"/><path d="m37.49 87.98 13.16-5.68.29 20.9 54.83-23.92v17.84l-68.4 29.96.12-39.1Z" fill="url(#e)"/><path d="m27.12 82.59 10.32 5.39-.06 39.03-10.26-5.15V82.59Z" fill="url(#f)"/><path d="m40.15 76.78 10.5 5.52-13.21 5.68-10.32-5.4 13.03-5.8Z" fill="url(#g)"/><path d="m105.77 56.6-.07-16.69-17.72 7.84v16.59l17.78-7.74Z" fill="url(#h)"/><path d="m27.12 16.22 17.91-8.24 60.7 31.9-17.75 7.87-60.86-31.53Z" fill="url(#i)"/></g><defs><linearGradient id="b" x1="11.9" y1="50.66" x2="119.37" y2="50.66" gradientUnits="userSpaceOnUse"><stop stop-color="#FFD4B2"/><stop offset=".36" stop-color="#9ACEB7"/><stop offset=".67" stop-color="#47C8BB"/><stop offset=".89" stop-color="#14C5BE"/><stop offset="1" stop-color="#00C4BF"/></linearGradient><linearGradient id="c" x1="44.08" y1="62.85" x2="44.08" y2="21.22" gradientUnits="userSpaceOnUse"><stop stop-color="#00FECF"/><stop offset=".08" stop-color="#00E5D0"/><stop offset=".24" stop-color="#00A5D1"/><stop offset=".48" stop-color="#0040D4"/><stop offset=".54" stop-color="#0025D5"/><stop offset="1"/></linearGradient><linearGradient id="d" x1="37.44" y1="76.86" x2="146.89" y2="76.86" gradientUnits="userSpaceOnUse"><stop stop-color="#FDEC9F"/><stop offset=".08" stop-color="#E4D8A4"/><stop offset=".24" stop-color="#A4A6B2"/><stop offset=".47" stop-color="#3F57C8"/><stop offset=".61" stop-color="#0025D5"/><stop offset="1"/></linearGradient><linearGradient id="e" x1="15.06" y1="103.18" x2="155.01" y2="103.18" gradientUnits="userSpaceOnUse"><stop offset=".05" stop-color="#62A5FF"/><stop offset=".45" stop-color="#1032D1"/><stop offset="1"/></linearGradient><linearGradient id="f" x1="628.74" y1="3244.93" x2="797.78" y2="3247.12" gradientUnits="userSpaceOnUse"><stop stop-color="#FFD4B2"/><stop offset=".36" stop-color="#9ACEB7"/><stop offset=".67" stop-color="#47C8BB"/><stop offset=".89" stop-color="#14C5BE"/><stop offset="1" stop-color="#00C4BF"/></linearGradient><linearGradient id="g" x1="24.6" y1="82.38" x2="72.58" y2="82.38" gradientUnits="userSpaceOnUse"><stop stop-color="#00FECF"/><stop offset=".08" stop-color="#00E5D0"/><stop offset=".25" stop-color="#00A5D1"/><stop offset=".49" stop-color="#0040D4"/><stop offset=".56" stop-color="#0025D5"/></linearGradient><linearGradient id="h" x1="70.96" y1="52.6" x2="189.07" y2="50.46" gradientUnits="userSpaceOnUse"><stop stop-color="#00FECF"/><stop offset=".05" stop-color="#00E5D0"/><stop offset=".15" stop-color="#00A5D1"/><stop offset=".29" stop-color="#0040D4"/><stop offset=".33" stop-color="#0025D5"/></linearGradient><linearGradient id="i" x1="27.12" y1="27.87" x2="173.64" y2="27.87" gradientUnits="userSpaceOnUse"><stop stop-color="#FFD4AF"/><stop offset=".1" stop-color="#E6D5BA"/><stop offset=".31" stop-color="#A7D6D5"/><stop offset=".61" stop-color="#43D9FF"/><stop offset=".63" stop-color="#37B1D0"/><stop offset=".65" stop-color="#2B8CA5"/><stop offset=".67" stop-color="#216B7D"/><stop offset=".7" stop-color="#184E5B"/><stop offset=".72" stop-color="#10353F"/><stop offset=".75" stop-color="#0A2228"/><stop offset=".78" stop-color="#061316"/><stop offset=".82" stop-color="#020809"/><stop offset=".88" stop-color="#010202"/><stop offset="1"/></linearGradient></defs></svg>